<svg xmlns="http://www.w3.org/2000/svg" xmlns:xlink="http://www.w3.org/1999/xlink" width="500" zoomAndPan="magnify" viewBox="0 0 375 374.999991" height="500" preserveAspectRatio="xMidYMid meet" version="1.0">
  <defs><g/></defs>
  <path fill="#322c4d" d="M 217.296875 50.851562 L 189.203125 2.203125 L 41.199219 258.488281 L 98.332031 258.488281 Z M 217.296875 50.851562 " fill-opacity="1" fill-rule="nonzero"/>
  <path fill="#F7D391" d="M 239.632812 89.527344 L 170.621094 209.980469 L 251.660156 209.980469 L 279.667969 258.488281 L 337.203125 258.488281 Z M 239.632812 89.527344 " fill-opacity="1" fill-rule="nonzero"/>
  <g fill="#322c4d" fill-opacity="1">
    <g transform="translate(52.031801, 356.677811)">
      <g>
        <path d="M -3.234375 0 L 22.671875 -58.734375 L 36.40625 -58.734375 L 61.390625 0 L 44.671875 0 L 40.546875 -10.5 L 17.78125 -10.5 L 13.484375 0 Z M 23.40625 -24.15625 L 35.078125 -24.15625 L 29.375 -38.546875 Z M 23.40625 -24.15625 "/>
      </g>
    </g>
  </g>
  <g fill="#322c4d" fill-opacity="1">
    <g transform="translate(131.205899, 356.677811)">
      <g>
        <path d="M 56.75 -15.21875 L 60.5625 -2.484375 C 59.238281 -1.429688 57.472656 -0.585938 55.265625 0.046875 C 53.054688 0.679688 50.820312 1 48.5625 1 C 44.207031 1 40.59375 0.195312 37.71875 -1.40625 C 34.851562 -3.007812 32.539062 -5.269531 30.78125 -8.1875 L 25.3125 -17.375 C 24.65625 -18.476562 24.019531 -19.304688 23.40625 -19.859375 C 22.800781 -20.410156 22.0625 -20.769531 21.1875 -20.9375 L 21.1875 0 L 4.96875 0 L 4.96875 -58.734375 L 24.8125 -58.734375 C 33.863281 -58.734375 40.550781 -57.023438 44.875 -53.609375 C 49.207031 -50.191406 51.375 -45.445312 51.375 -39.375 C 51.375 -35.070312 50.132812 -31.5 47.65625 -28.65625 C 45.175781 -25.820312 41.894531 -23.828125 37.8125 -22.671875 C 39.90625 -22.003906 41.5625 -20.765625 42.78125 -18.953125 L 44.265625 -16.71875 C 45.640625 -14.5625 47.765625 -13.484375 50.640625 -13.484375 C 51.679688 -13.484375 52.710938 -13.609375 53.734375 -13.859375 C 54.753906 -14.109375 55.757812 -14.5625 56.75 -15.21875 Z M 24.65625 -45.421875 L 21.1875 -45.421875 L 21.1875 -33.75 L 25.40625 -33.75 C 28.988281 -33.75 31.484375 -34.234375 32.890625 -35.203125 C 34.296875 -36.171875 35 -37.675781 35 -39.71875 C 35 -41.914062 34.046875 -43.414062 32.140625 -44.21875 C 30.234375 -45.019531 27.738281 -45.421875 24.65625 -45.421875 Z M 24.65625 -45.421875 "/>
      </g>
    </g>
  </g>
  <g fill="#322c4d" fill-opacity="1">
    <g transform="translate(208.642732, 356.677811)">
      <g>
        <path d="M 53.203125 -58.734375 L 50.796875 -44.34375 L 33.59375 -44.34375 L 33.59375 0 L 17.046875 0 L 17.046875 -44.34375 L -1.328125 -44.34375 L -1.328125 -58.734375 Z M 53.203125 -58.734375 "/>
      </g>
    </g>
  </g>
  <g fill="#322c4d" fill-opacity="1">
    <g transform="translate(279.875077, 356.677811)">
      <g>
        <path d="M 24.734375 0.828125 C 17.347656 0.828125 11.582031 -0.742188 7.4375 -3.890625 C 3.300781 -7.035156 0.957031 -11.613281 0.40625 -17.625 L 15.71875 -19.859375 C 15.832031 -17.765625 16.753906 -16.066406 18.484375 -14.765625 C 20.222656 -13.472656 22.472656 -12.828125 25.234375 -12.828125 C 30.304688 -12.828125 32.84375 -14.148438 32.84375 -16.796875 C 32.84375 -18.003906 32.140625 -18.976562 30.734375 -19.71875 C 29.328125 -20.46875 27.023438 -21.226562 23.828125 -22 C 16.984375 -23.65625 11.960938 -25.863281 8.765625 -28.625 C 5.566406 -31.382812 3.992188 -35.273438 4.046875 -40.296875 C 4.109375 -44.097656 5.117188 -47.445312 7.078125 -50.34375 C 9.035156 -53.238281 11.789062 -55.5 15.34375 -57.125 C 18.90625 -58.75 23.082031 -59.5625 27.875 -59.5625 C 33.78125 -59.5625 38.648438 -58.070312 42.484375 -55.09375 C 46.316406 -52.125 48.507812 -48.070312 49.0625 -42.9375 L 34.578125 -40.453125 C 34.304688 -42.054688 33.46875 -43.367188 32.0625 -44.390625 C 30.65625 -45.410156 28.957031 -45.921875 26.96875 -45.921875 C 25.09375 -45.921875 23.585938 -45.546875 22.453125 -44.796875 C 21.328125 -44.054688 20.765625 -43.050781 20.765625 -41.78125 C 20.765625 -40.625 21.328125 -39.617188 22.453125 -38.765625 C 23.585938 -37.910156 25.726562 -37.097656 28.875 -36.328125 C 33.394531 -35.222656 37.1875 -33.96875 40.25 -32.5625 C 43.3125 -31.15625 45.628906 -29.347656 47.203125 -27.140625 C 48.773438 -24.929688 49.5625 -22.035156 49.5625 -18.453125 C 49.5625 -14.640625 48.523438 -11.285156 46.453125 -8.390625 C 44.390625 -5.492188 41.492188 -3.234375 37.765625 -1.609375 C 34.046875 0.015625 29.703125 0.828125 24.734375 0.828125 Z M 24.734375 0.828125 "/>
      </g>
    </g>
  </g>
</svg>
